<?xml version="1.0" encoding="UTF-8"?>
<svg id="Layer_2" data-name="Layer 2" xmlns="http://www.w3.org/2000/svg" viewBox="0 0 186.86 227.46">
  <defs>
    <style>
      .cls-1 {
        fill: #fff;
      }

      .cls-2 {
        fill: #05a788;
      }

      .cls-3 {
        fill: #2a2f70;
      }
    </style>
  </defs>
  <g id="Layer_1-2" data-name="Layer 1">
    <g>
      <path class="cls-1" d="m20.38,161.93c16.65,29.92,42.79,48.84,72.33,65.54h0c21.31-9.56,40.18-22.48,54.97-39.5h0c15.72-18.13,29.96-39.08,33.82-65.64h0c3.4-23.15,3.58-49.9,5.36-79.42h0c-7.96-2.85-15.16-7.08-20.77-13.4h0c-5.83-6.5-9.52-15.05-10.77-25.22h0C135.58,1.47,114.12,0,92.76,0h0c-20.83,0-41.68,1.4-60.76,4.32h0c-1.83,9.34-5.15,17.72-10.62,24.62h0c-5.27,6.7-12.58,11.65-21.37,14.43h0c1.41,48.7,3.86,89.2,20.38,118.56h0Z"/>
      <g>
        <g>
          <path class="cls-2" d="m88.29,88.38c-3.03.98-6.56,2.73-6.56,2.73-2.13,1.02-3.12,1.36-4.22,2.7-.64.82-1.49,2.49-.89,3.34.9,1.25,4.2-.26,5.34-.78,1.8-.81,2.88-1.62,4.16-2.33,2.45-1.45,4.42-2.42,6.61-3.43v-5.01c-.91,1.05-2.32,2.07-4.45,2.76Z"/>
          <path class="cls-2" d="m61.17,52c.88-.34,1.63-.8,2.22-1.37,1.04-.97,1.81-2.24,2.36-3.8.57-1.72.88-3.87.88-6.39,0-2.75-.43-5.03-1.26-6.84-.8-1.75-1.94-3.06-3.41-3.91-1.46-.82-3.25-1.24-5.31-1.24,0,0-1.1.02-1.69.04v24.13c.58.01,1.74.05,1.74.05,1.78,0,3.29-.22,4.46-.67Z"/>
          <path class="cls-2" d="m92.74,163.68v-3.86c-1.32.57-2.59,1.2-3.8,1.91-2.26,1.35-4.48,3.22-5.66,5.44-1.74,3.3-1.18,9.74,2.34,11.1,1.72.69,4.35.28,4.1-1.98-.2-1.95-2.18-2.32-2.54-3.9-.17-.66-.08-1.67.22-2.44.86-2.54,3-4.64,5.34-6.28Z"/>
          <path class="cls-2" d="m60.41,196.15c3.06-4.04,8.32-7.78,14.31-5.66,0,0,7.36,2.76,18.02,2.28v-3.06c-1.58.06-3.19,0-4.78-.22-3.66-.51-6.37-1.99-8.55-3.99-4.3-3.93-8.05-11.15-6.02-19.76,2.07-8.7,9.55-13.54,19.35-15.13v-3.66c-.12.01-.24.02-.36.03-11.77,1.02-21.03,4.74-24.65,14.1-1.27,3.3-1.75,7.18-1.23,11.34.42,3.28,2.2,7.07,1.91,10.99-.21,2.58-2.07,4.97-3.9,5.88-4.03,1.98-9.69-1.58-12.1-3.56-1.25-1-2.22-2.32-3.44-3.33-4.96-4.09-10.4-7.39-16.32-10.88-1.53-.89-3.23-2.09-4.87-1.89-.71.08-1.38.48-2.06,1.01,8.15,12.24,18.02,22.52,29.09,31.59,2.02-1.89,3.96-3.89,5.6-6.07Z"/>
          <path class="cls-2" d="m20.99,161.3c2.1-1.36,5.88-1.25,8.12-1.66,2.35-.42,5.29-.89,7.2-2.45,1.71-1.38,3.07-3.56,3.79-6.21,1,2.51,1.44,6.1-.46,8.32-.41.46-1.18.93-1.87,1.42-1.02.74-3.36,1.85-3.36,3.35.03,1.14,2.3,2.2,3.13,3,1.12,1.13,2.05,2.13,3.49,3.1,2.07,1.39,7.12,2.5,9.25,3.78-1.27-4.29-1.24-9.02-.45-12.88.8-4.06,2.62-7.22,4.65-9.78,6.38-8.01,15.94-12.78,28.41-14.76,3.14-.5,6.57-.57,9.85-.76v-16.38c-.06-.13-.11-.26-.13-.41-.06-.34,0-.66.13-.97v-4.55c-.08.02-.15.05-.23.08-3.82,1.12-8.66.83-10.22,4.46,2.84-1.56,8.12-2.17,8.33,2.54.2,4.63-3.19,8.2-6.12,10.43-3.36,2.62-7.15,3.72-12.1,4.33-4.98.63-9.4,1.68-12.56,3.88-1.56,1.13-2.86,2.62-4.42,3.79-2.05,1.46-3.93,2.99-6.57,3.68-.35-.47.5-.69.78-.91,1.1-.83,2.35-1.98,2.67-3.67-3.5,1.3-6.18,4.91-11.86,3.99.8-1.5,4.41-.85,4.44-2.87,0-.94-1.45-1.6-2.22-2.12-.89-.59-1.98-1.24-2.02-2.34-.04-1.1,1.03-2.14,2.33-2.31,1.05-.16,2.34.41,3.79.21,1.47-.21,2.89-1.32,4.54-2,2.11-.86,4.19-1.67,7.34-1.45,1,.11,2.22.55,3.23.33,1.3-.25,2.19-1.94,1.77-3.66-.65-2.52-4.15-4.08-6.47-2.94-2.19,1.06-4.08,4.23-6.86,5.49-3.35,1.55-11.03,4.24-14.65,1.11-.78-.64-.95-2.01-1.78-2.77-1.04-.93-3.46-1.15-4.45-2.22-.27-.29-.44-.97-.78-1.55-.96-1.64-2.8-2.77-1.97-5.57.68-2.36,3.16-3.95,5.43-5.32,5.36-3.28,11.02-6.84,13.11-13.44-.2,7.41-5.7,11.4-11.33,14.54-1.7.96-4.24,2.25-4.45,4.22-.17,1.9,1.14,2.07,2.12,3.01,2.91-2.32,5.94,1.4,9.66.43,3.46-.91,6.34-4.07,8.88-6.43.86-.79,2.19-1.8,2.23-2.88.04-1.49-1.87-3.27-1.44-5.45.51-2.59,3.41-3.57,5.76-4.78,1.6-.77,3.14-1.46,4.57-2.09-.95,1.84-6.24,3.41-6.44,6.43-.07.96.17,1.59.9,2.11,2.45,1.83,5.81-.72,8.64-.88,1.26-.07,2.39.38,3.67.44-1.99.46-3.51.2-4.77,1.55-.87.97-.72,2.73-1.45,3.56-.74.84-1.94,1.15-2.8,1-1.18-.21-1.77-.83-2.73-2.04.36,3.5,4,5.86,7.72,4.4,1.29-.53,2.3-1.53,2.72-3.21.39-1.6-.98-2.49-.55-3.34,1.76-3.45,11.81.8,12.72-3.58.31-1.38-.33-1.71-.46-3.53,0,0-.24-.81,1.32-1.61,1.55-.91,3.25-1.68,3.6-3.75-1.02.2-1.66.99-2.77,1.34-1.71.56-4.37.28-5.45,1.88-1.03,1.56-.91,4.58-2.66,5.22-1.1.41-2.62.5-3-.66-1.13-3.85,4.96-4.58,5.32-8.23-.93.25-1.24,1.31-2.11,2.01-1.53,1.24-4.89,1.45-6.42,2.99-.96.98-1.35,2.59-2.44,3.46-.79.6-2.01,1.22-3,.88-1.04-.28-1.44-1.55-1.26-2.49.51-2.9,5.33-2.87,6.71-5.07.6-.96.55-2.55.88-3.9,1.1-4.3,4.42-7.26,7.9-10.31,3.17-2.81,6.73-5.78,8.76-9.32.69-1.21,1.4-2.72,1.45-4.22.04-1.39-.59-2.82,0-4,1.77.72,2.54,2.96,2.78,4.99.66,6.2-4.66,10.08-7.71,12.72,4.1-1.75,3.69-2.13,7.21-2.93,1.06-.24,2.07-.71,3.16-1.96.95-1.09,1.62-1.68,2.13-1.98v-11.41s-.1,0-.15,0c-2.24,0-4.04-1.82-4.04-4.06s1.8-4.06,4.04-4.06c.05,0,.1,0,.15,0v-19.89h-5.02v8.44l.04,1.4.18.98s.3.49.3.52l.61.37,1.58.48v2.43h-14.34v-2.03l.04-.4,1.74-.57c.28-.14.45-.31.58-.51.14-.22.24-.55.28-.94l.05-1.72v-19.3l-.05-1.74c-.04-.39-.13-.72-.26-.91-.12-.23-.31-.41-.59-.54l-1.37-.46-.41-.15v-2.41h14.34v2.46l-.42.1c-1,.26-1.43.49-1.61.63-.25.19-.41.45-.53.81-.08.24-.16.86-.16,2.22v6.92h5.02V0c-20.81,0-41.65,1.41-60.72,4.32-1.83,9.34-5.15,17.72-10.62,24.62C16.12,35.64,8.81,40.59.02,43.37c1.41,48.64,3.86,89.09,20.32,118.44.21-.2.42-.37.64-.52Zm29.24-91.5c-2.23,0-4.05-1.82-4.05-4.06s1.81-4.06,4.05-4.06,4.06,1.82,4.06,4.06-1.82,4.06-4.06,4.06Zm21.2,0c-2.25,0-4.06-1.82-4.06-4.06s1.81-4.06,4.06-4.06,4.03,1.82,4.03,4.06-1.82,4.06-4.03,4.06Zm-28.06-15.42l.04-.4,1.73-.57c.27-.14.46-.31.57-.51.15-.22.24-.55.27-.94l.07-1.72v-19.3l-.05-1.74c-.03-.39-.11-.72-.23-.91-.14-.23-.33-.41-.61-.54l-1.36-.46-.43-.15v-2.41h13.65c2.83,0,5.23.2,7.15.59,1.92.39,3.67,1.04,5.17,1.9,1.53.86,2.77,1.93,3.71,3.12.95,1.22,1.65,2.63,2.09,4.22.46,1.58.68,3.36.68,5.34,0,2.38-.3,4.57-.92,6.43-.66,1.95-1.61,3.6-2.89,4.99-1.14,1.21-2.54,2.25-4.19,3.03-1.64.77-3.55,1.34-5.63,1.66-1.81.26-4.1.41-6.83.41h-11.98v-2.03Z"/>
          <path class="cls-2" d="m77.52,197.61c-5.21.29-7.8,4.38-11.56,6.98-1.38.96-2.89,1.93-4.41,2.9,9.72,7.26,20.22,13.77,31.19,19.97h0v-30.12c-8.11.11-9.42-.09-15.22.27Z"/>
        </g>
        <g>
          <path class="cls-3" d="m157.43,160.06c-2.45,3.22-4.55,7.39-4.89,12-.24,3.17.55,5.75,1.95,7.71,7.67-9.67,14.62-20.17,19.68-31.87-6.76,2.86-12.69,6.83-16.74,12.15Z"/>
          <path class="cls-3" d="m122.23,147.39c3.13-1.1,6.07-2.56,7.21-6.07-3.55,5.34-14.98,5.43-24.31,5.43-4.05,0-8.36-.13-12.41.19v3.66c1.71-.28,3.48-.46,5.31-.54,8.47-.35,17.52-.24,24.21-2.67Z"/>
          <path class="cls-3" d="m145.44,129.53c-6.3,12.54-13.34,23.03-29.99,25.43-3.25.48-6.54.63-9.88,1.23-4.48.8-8.88,1.91-12.86,3.63v3.86c.87-.61,1.77-1.15,2.64-1.62,9.6-5.19,31.9-5.93,32.87,7.46.35,4.75-.72,7.44-2.33,11.11,2.26-.84,4.47-2.58,6.54-4.45,2.38-2.15,4.97-5.31,4.13-9.55-.55-2.66-2.55-4.5-2.55-7.33,0-6.01,6.25-8.76,11.87-9.11,2.85-.19,5.65.63,9,.45,7.05-.4,10.83-4.52,14.2-9.24-5.2-2.81-8.34,2.91-13.77,2.35-2.94-.31-5.88-2.94-6.77-5.01-2.24-5.19,3.14-9.66,6.57-11.66,1.21-.67,2.82-2.03,5.53-2.65,2.13-.5,4.48-.65,6.89-1.35,6.67-1.91,11.46-7.19,15.37-12.14.27-2.63.51-5.29.73-8-15.82,5.57-31.01,12.31-38.19,26.61Z"/>
          <path class="cls-3" d="m109.24,122.41c-2.07,2.12-3,4.12-7.01,5.73-2.98,1.18-8.36,2.18-8.54.05.13-5.14,6.12-6.49,9.44-7.66-.49-1.01-2.08-2.31-3.8-2.23-1.3.1-1.39,1.33-2.87,1.88-1.32.52-3.21.27-3.75-.8v16.38c1.21-.07,2.41-.16,3.55-.3,9.97-1.21,12.29-3.73,12.97-13.05Z"/>
          <path class="cls-3" d="m149.91,176.65c-3.38-5.88-3.95-.93-12.68,6.51-17.65,15.02-42.5,14.15-42.5,14.15-.71.01-1.38.02-2.01.03v30.12c21.31-9.56,40.18-22.48,54.97-39.49,2.19-2.53,4.35-5.11,6.46-7.75-.89-.3-1.83-.52-4.24-3.56Z"/>
          <path class="cls-3" d="m94.58,115.98c2.79-2.22,5.5-4.3,7-7.76-2.23,1.99-5.17,4.12-8.87,5.24v4.55c.39-.91,1.4-1.65,1.86-2.02Z"/>
          <path class="cls-3" d="m170.41,127.53c-2.37,1.17-6.13,2.29-7.33,4.01-1.89,2.7-1.37,5.28.5,6.06,1.55.69,5.4-1.35,6.82-2.03,2.98-1.42,6.06-2.71,9.25-3.84.76-3.06,1.38-6.19,1.85-9.41.37-2.55.7-5.14,1-7.77-2.7,5.47-6.3,10.11-12.09,12.98Z"/>
          <path class="cls-3" d="m118.24,176.73c0-3.71-2.29-6.67-5.12-7.79-3.98-1.55-8.34,0-10,1.33-1.65,1.34-3.76,6.82-.12,8.11,1.46.5,4.52.27,4.68-2.21-.25-.41-1.13.23-1.77-.23-.69-.49-.72-1.88-.44-2.56.99-2.49,5.61-.78,6.42.22.61.73,1.23,2.3,1.23,3.78,0,3.43-2.75,5.94-5.1,7.54-3.7,2.52-9.37,4.55-15.31,4.78v3.06c2.94-.13,6.12-.51,9.47-1.25,7.53-1.69,16.03-6.04,16.06-14.78Z"/>
          <path class="cls-3" d="m166.08,29.52c-5.83-6.5-9.52-15.05-10.77-25.22C135.58,1.47,114.12,0,92.76,0h-.04v37.87s5.27,0,5.27,0v-6.92c0-1.35-.06-1.98-.13-2.22-.09-.36-.25-.61-.49-.81-.17-.14-.61-.38-1.64-.63l-.41-.1v-2.46h14.26v2.46l-.43.1c-.84.21-1.26.4-1.44.51-.26.14-.42.31-.5.52l-.26.89-.05,1.74v19.29c0,1.37.08,1.97.15,2.23.08.3.24.57.51.77.17.16.59.4,1.6.6l.43.1v2.48h-14.26v-2.48l.42-.1c1.21-.27,1.6-.49,1.69-.57.18-.14.33-.37.42-.65.06-.26.15-.88.15-2.37v-8.44h-5.28v19.89c2.16.08,3.89,1.87,3.89,4.05s-1.74,3.97-3.89,4.05v11.41c.92-.55,1.23-.1,1.4.15.26.41.22,2.39-1.4,4.26v5.01c.61-.28,1.23-.56,1.89-.85,6.5-2.91,13.5-4.61,22.85-3.75-2.4.47-5.65,1.17-7.54,1.87-.96.38-4.38,1.79-4.19,3.42.51,5.08,11,1.27,14.63.5,2.83-.65,6.16-1.16,9.87-.91,3.87.26,8.12,1.75,12.11,2.11,4.77.43,8.97-.05,12.77-1.11-3.45,5.02-10.88,6.58-19.78,5.66-1.98-.22-5.77-1.25-7.76-.46-.86.37-1.96,1.68-1.78,2.77.3,1.77,4.3,1.69,6.09,2.13,2.04.47,4.14,1.56,6.54,1.66,5.86.26,9.1-2.03,12.91-3.55-3.11,4.1-7.27,9.01-15.23,8.31-2.44-.2-4.82-1.82-7.67-.98-1.47.42-2.52,2.34-1.88,3.99.4,1.02,2.21,1.66,3.34,1.76,6.32.69,10.91-2.29,15.55-3.43-1.22,2.51-2.33,4.57-4.34,6.33-2.45,2.16-6.19,2.36-8.76,4.32-1.17.91-4.6,6.08-1.65,7.22,2.76,1.11,6.06-1.44,7.41-2.33,6.02-3.91,10.14-10.06,15.91-13.99,8.2-5.63,17.9-8.17,29.66-8.8,1.45-18.2,1.91-38.17,3.2-59.61-7.96-2.85-15.16-7.08-20.77-13.4Zm-52.35,40.28c-2.22,0-4.04-1.82-4.04-4.06s1.82-4.06,4.04-4.06,4.06,1.82,4.06,4.06-1.82,4.06-4.06,4.06Zm21.2,0c-2.24,0-4.04-1.82-4.04-4.06s1.8-4.06,4.04-4.06,4.04,1.82,4.04,4.06-1.8,4.06-4.04,4.06Zm7.45-43.04l-.04.41-1.72.56c-.24.13-.44.3-.57.51-.13.24-.23.55-.28.93l-.07,1.73v14.01c0,1.88-.17,3.49-.51,4.79-.35,1.3-.92,2.43-1.68,3.34-.76.89-1.7,1.65-2.82,2.2-1.09.54-2.32.93-3.68,1.17-1.33.24-2.86.34-4.5.34-2.44,0-4.53-.21-6.2-.67-1.73-.47-3.17-1.16-4.23-2.1-1.12-.94-1.94-2.11-2.46-3.44-.52-1.33-.78-3.06-.78-5.12v-14.48l-.06-1.74c-.04-.39-.15-.72-.27-.91-.11-.23-.3-.41-.57-.54l-1.38-.46-.42-.15v-2.41h14.34v2.46l-.44.1c-.64.15-1.1.31-1.37.48-.27.13-.45.3-.55.48l-.28.85-.1,1.84v14.76c0,1.14.08,2.21.24,3.13.17.9.44,1.67.85,2.31.39.62.91,1.07,1.6,1.38.73.37,1.68.52,2.85.52,1.58,0,2.74-.27,3.51-.79.74-.57,1.27-1.3,1.58-2.3.31-1.04.49-2.65.49-4.75v-14.31c0-1.32-.07-1.93-.16-2.21-.08-.35-.24-.59-.46-.8-.15-.1-.54-.35-1.64-.61l-.42-.1v-2.46h12.19v2.02Z"/>
        </g>
      </g>
    </g>
  </g>
</svg>